<?xml version="1.0" standalone="no"?>
<!DOCTYPE svg PUBLIC "-//W3C//DTD SVG 20010904//EN"
 "http://www.w3.org/TR/2001/REC-SVG-20010904/DTD/svg10.dtd">
<svg version="1.0" xmlns="http://www.w3.org/2000/svg"
 width="504.000000pt" height="504.000000pt" viewBox="0 0 504.000000 504.000000"
 preserveAspectRatio="xMidYMid meet">
<metadata>
Created by potrace 1.11, written by Peter Selinger 2001-2013
</metadata>
<g transform="translate(0.000000,504.000000) scale(0.100000,-0.100000)"
fill="#000000" stroke="none">
<path d="M204 3563 l1 -254 375 -150 c206 -82 384 -153 395 -158 11 -6 52 -22
90 -37 39 -14 84 -32 100 -40 17 -7 107 -43 200 -79 94 -37 184 -73 200 -80
17 -8 79 -33 138 -56 60 -23 105 -45 100 -49 -4 -4 -84 -38 -178 -75 -93 -37
-183 -73 -200 -80 -16 -7 -151 -61 -300 -120 -148 -58 -279 -110 -290 -115
-11 -5 -56 -23 -100 -41 -44 -17 -93 -37 -110 -44 -16 -6 -61 -25 -100 -40
-38 -15 -83 -33 -100 -40 -16 -7 -61 -25 -100 -40 -38 -15 -82 -33 -96 -38
l-26 -11 0 -252 1 -252 60 23 c34 13 284 112 556 220 272 108 614 244 760 302
146 58 279 111 295 118 17 7 147 59 290 115 143 57 265 107 270 111 10 7 14
513 4 523 -2 2 -344 140 -759 305 -415 166 -764 306 -775 311 -26 12 -619 248
-666 265 l-37 13 2 -255z"/>
<path d="M2640 1100 l0 -110 1103 0 1103 0 0 110 0 110 -1103 0 -1103 0 0
-110z"/>
</g>
</svg>
